<?xml version="1.0" encoding="UTF-8" standalone="no"?>
<!-- Created with Inkscape (http://www.inkscape.org/) -->

<svg
   xmlns:dc="http://purl.org/dc/elements/1.1/"
   xmlns:cc="http://creativecommons.org/ns#"
   xmlns:rdf="http://www.w3.org/1999/02/22-rdf-syntax-ns#"
   xmlns:svg="http://www.w3.org/2000/svg"
   xmlns="http://www.w3.org/2000/svg"
   xmlns:sodipodi="http://sodipodi.sourceforge.net/DTD/sodipodi-0.dtd"
   xmlns:inkscape="http://www.inkscape.org/namespaces/inkscape"
   width="256px"
   height="256px"
   viewBox="0 0 256 256"
   version="1.1"
   id="SVGRoot"
   inkscape:version="0.92.2 (5c3e80d, 2017-08-06)"
   sodipodi:docname="bazooka.svg"
   inkscape:export-filename="D:\bazozok\yep\bazooka.png"
   inkscape:export-xdpi="950.71997"
   inkscape:export-ydpi="950.71997">
  <sodipodi:namedview
     id="base"
     pagecolor="#ffffff"
     bordercolor="#666666"
     borderopacity="1.0"
     inkscape:pageopacity="0.0"
     inkscape:pageshadow="2"
     inkscape:zoom="1.9999999"
     inkscape:cx="83.639676"
     inkscape:cy="80.429253"
     inkscape:document-units="px"
     inkscape:current-layer="layer1"
     showgrid="false"
     inkscape:window-width="1920"
     inkscape:window-height="1017"
     inkscape:window-x="-8"
     inkscape:window-y="-8"
     inkscape:window-maximized="1"
     inkscape:grid-bbox="true" />
  <defs
     id="defs66" />
  <metadata
     id="metadata69">
    <rdf:RDF>
      <cc:Work
         rdf:about="">
        <dc:format>image/svg+xml</dc:format>
        <dc:type
           rdf:resource="http://purl.org/dc/dcmitype/StillImage" />
        <dc:title />
      </cc:Work>
    </rdf:RDF>
  </metadata>
  <g
     id="layer1"
     inkscape:groupmode="layer"
     inkscape:label="Layer 1">
    <rect
       id="rect82"
       width="258.5"
       height="258.5"
       x="-1.5441942"
       y="-1.845971"
       style="fill:#ff0000" />
    <flowRoot
       xml:space="preserve"
       id="flowRoot84"
       style="font-style:normal;font-variant:normal;font-weight:normal;font-stretch:condensed;font-size:96px;line-height:1.25;font-family:'Gotham Narrow';-inkscape-font-specification:'Gotham Narrow weight=330 Condensed';letter-spacing:0px;word-spacing:0px;fill:#000000;fill-opacity:1;stroke:none"><flowRegion
         id="flowRegion86"
         style="font-style:normal;font-variant:normal;font-weight:normal;font-stretch:condensed;font-size:96px;font-family:'Gotham Narrow';-inkscape-font-specification:'Gotham Narrow weight=330 Condensed'"><rect
           id="rect88"
           width="219"
           height="130"
           x="24"
           y="61"
           style="font-style:normal;font-variant:normal;font-weight:normal;font-stretch:condensed;font-size:96px;font-family:'Gotham Narrow';-inkscape-font-specification:'Gotham Narrow weight=330 Condensed'" /></flowRegion><flowPara
         id="flowPara90" /></flowRoot>    <flowRoot
       xml:space="preserve"
       id="flowRoot92"
       style="fill:black;fill-opacity:1;stroke:none;font-family:sans-serif;font-style:normal;font-weight:normal;font-size:40px;line-height:1.25;letter-spacing:0px;word-spacing:0px"><flowRegion
         id="flowRegion94"><rect
           id="rect96"
           width="13.5"
           height="147"
           x="-292.5"
           y="-164.5" /></flowRegion><flowPara
         id="flowPara98" /></flowRoot>    <circle
       style="fill:#ff0000"
       id="path204"
       cx="144.07301"
       cy="151.87852"
       r="11.667262" />
    <rect
       style="fill:#ff0000"
       id="rect210"
       width="16.086679"
       height="31.289474"
       x="133.64319"
       y="114.9322" />
    <circle
       style="fill:#ff0000"
       id="path223"
       cx="154.0625"
       cy="137.3125"
       r="4.3125" />
    <rect
       style="fill:#ff0000;stroke-width:1.05494225"
       id="rect250"
       width="0.671875"
       height="0.26953125"
       x="177.75781"
       y="141.53516" />
    <rect
       style="fill:#ff0000"
       id="rect255"
       width="4.90625"
       height="12.625"
       x="104.71875"
       y="135.53125" />
    <rect
       style="fill:#ff0000"
       id="rect261"
       width="2.0625"
       height="3.796875"
       x="183.29688"
       y="100" />
    <circle
       style="fill:#ff0000"
       id="path266"
       cx="213.82884"
       cy="94.645012"
       r="4.5499392" />
    <rect
       style="fill:#ff0000"
       id="rect89"
       width="7.2257476"
       height="11.667262"
       x="10.429826"
       y="92.282677" />
    <rect
       style="fill:#ff0000"
       id="rect93"
       width="2.3643885"
       height="9.4354563"
       x="104.29826"
       y="134.79747" />
  </g>
  <g
     inkscape:groupmode="layer"
     id="layer8"
     inkscape:label="Layer 8" />
  <g
     inkscape:groupmode="layer"
     id="layer2"
     inkscape:label="Layer 2"
     style="opacity:1">
    <g
       id="g131">
      <rect
         y="99.816109"
         x="17.675011"
         height="74.058891"
         width="19.712023"
         id="rect112"
         style="fill:#ffcc00;stroke-width:1.04927063" />
      <path
         inkscape:connector-curvature="0"
         id="path118"
         d="M 43.119352,75.569074 A 25.498923,26.091921 0 0 0 17.620428,101.661 25.498923,26.091921 0 0 0 37.387035,127.05285 v -17.61699 -2.17227 h -0.0453 v -7.447478 h 0.05148 a 5.77377,5.77377 0 0 1 -0.0062,-0.189433 5.77377,5.77377 0 0 1 5.773496,-5.773494 5.77377,5.77377 0 0 1 5.773497,5.773494 5.77377,5.77377 0 0 1 -0.01033,0.189433 h 0.05971 v 5.139318 2.30816 2.17227 17.58816 A 25.498923,26.091921 0 0 0 68.618196,101.661 25.498923,26.091921 0 0 0 43.119273,75.569074 Z"
         style="fill:#ffcc00;stroke-width:1.05421901" />
      <rect
         style="fill:#ffcc00;stroke-width:1.05421901"
         id="rect141"
         width="19.898384"
         height="74.058891"
         x="48.983444"
         y="99.816109" />
      <rect
         y="99.816109"
         x="80.478241"
         height="74.058891"
         width="19.525661"
         id="rect143"
         style="fill:#ffcc00;stroke-width:1.04429901" />
      <path
         inkscape:connector-curvature="0"
         style="fill:#ffcc00;stroke-width:1.05421901"
         d="M 74.614146,75.569074 A 25.498923,26.091921 0 0 0 49.115222,101.661 25.498923,26.091921 0 0 0 68.88183,127.05285 v -17.61699 -2.17227 h -0.0453 v -7.447478 h 0.05148 a 5.77377,5.77377 0 0 1 -0.0062,-0.189433 5.77377,5.77377 0 0 1 5.773496,-5.773494 5.77377,5.77377 0 0 1 5.773497,5.773494 5.77377,5.77377 0 0 1 -0.01033,0.189433 h 0.05971 v 5.139318 2.30816 2.17227 17.58816 A 25.498923,26.091921 0 0 0 100.11307,101.661 25.498923,26.091921 0 0 0 74.614146,75.569074 Z"
         id="path145" />
    </g>
    <g
       id="g149">
      <rect
         y="115.26358"
         x="186.87154"
         height="19.640114"
         width="50.133976"
         id="rect153"
         style="fill:#ffcc00;stroke-width:1.03369033" />
      <rect
         y="101.30877"
         x="186.87154"
         height="72.61673"
         width="19.640114"
         id="rect155"
         style="fill:#ffcc00;stroke-width:1.03369033" />
      <path
         inkscape:connector-curvature="0"
         id="path157"
         d="m 212.52603,74.745753 a 25.713048,26.311025 0 0 0 -25.71305,26.310637 25.713048,26.311025 0 0 0 19.93287,25.60404 v -11.37867 h -0.23419 v -13.973 h 0.18976 v -2.113811 h 0.0503 a 5.8222546,5.8222546 0 0 1 -0.006,-0.189785 5.8222546,5.8222546 0 0 1 5.82259,-5.822577 5.8222546,5.8222546 0 0 1 5.82257,5.822577 5.8222546,5.8222546 0 0 1 -0.0121,0.189785 h 0.0607 v 2.113811 h 19.79557 a 25.713048,26.311025 0 0 0 0.004,-0.25237 25.713048,26.311025 0 0 0 -25.71303,-26.310637 z m 5.91342,40.536007 v 11.35039 a 25.713048,26.311025 0 0 0 15.66284,-11.35039 z"
         style="fill:#ffcc00;stroke-width:1.06307173" />
    </g>
    <circle
       style="fill:#ffcc00;stroke-width:1.18124998"
       id="path190"
       cx="144.35333"
       cy="140.91838"
       r="33.410793" />
    <circle
       style="fill:#ff0000;stroke-width:1.32374108"
       id="path206"
       cx="144.07301"
       cy="145.16103"
       r="16.263454" />
  </g>
  <g
     inkscape:groupmode="layer"
     id="layer3"
     inkscape:label="Layer 3">
    <rect
       style="fill:#ffcc00;stroke-width:0.99596715"
       id="rect194"
       width="66.821594"
       height="65.58416"
       x="111.19254"
       y="76.041321" />
    <rect
       style="fill:#d4aa00;stroke-width:1.14134777"
       id="rect196"
       width="24.218407"
       height="75.660431"
       x="132.22896"
       y="77.455536" />
    <rect
       y="70.030914"
       x="132.22896"
       height="75.660431"
       width="24.218407"
       id="rect198"
       style="fill:#ff0000;stroke-width:1.14134777" />
    <rect
       style="fill:#ff0000;stroke-width:1.18823338"
       id="rect202"
       width="25.843407"
       height="76.847931"
       x="131.54146"
       y="77.455536" />
    <rect
       y="68.595253"
       x="127.75777"
       height="75.660431"
       width="32.401913"
       id="rect208"
       style="fill:#ff0000;stroke-width:1.32017207" />
    <rect
       style="fill:#ff0000"
       id="rect246"
       width="1.0669599"
       height="2.2974281"
       x="158.18304"
       y="141.86903" />
    <rect
       style="fill:#ff0000;stroke-width:2.49045777"
       id="rect248"
       width="2.3864853"
       height="69.075493"
       x="157.90578"
       y="75.820351" />
  </g>
  <g
     inkscape:groupmode="layer"
     id="layer4"
     inkscape:label="Layer 4">
    <rect
       style="fill:#ff0000;stroke-width:1.22876453"
       id="rect213"
       width="13.519299"
       height="28.583633"
       x="183.69943"
       y="-4.5453415"
       transform="matrix(0.67988152,0.73332198,-0.67988152,0.73332198,0,0)" />
    <rect
       transform="matrix(0.64475579,0.76438863,-0.68467028,0.72885294,0,0)"
       y="1.1311561"
       x="198.16229"
       height="26.928265"
       width="12.736353"
       id="rect215"
       style="fill:#ffcc00;stroke-width:1.15760291" />
    <rect
       style="fill:#ffcc00;stroke-width:0.87004483"
       id="rect217"
       width="9.4655228"
       height="45.104282"
       x="75.289207"
       y="214.58414"
       transform="matrix(0.78406905,-0.6206736,0.38808235,0.9216247,0,0)" />
    <rect
       style="fill:#ffcc00"
       id="rect219"
       width="25.146042"
       height="10.433655"
       x="60.583309"
       y="185.66917"
       transform="rotate(-24.040987)" />
  </g>
  <g
     inkscape:groupmode="layer"
     id="layer5"
     inkscape:label="Layer 5">
    <path
       style="fill:#ff0000;stroke-width:1.19668376"
       d="m 156.64258,130.43934 a 8.8923416,5.8456726 0 0 0 -8.89258,5.8457 8.8923416,5.8456726 0 0 0 8.89258,5.84571 8.8923416,5.8456726 0 0 0 2.60742,-0.26172 v -11.17188 a 8.8923416,5.8456726 0 0 0 -2.60742,-0.25781 z"
       id="path226"
       inkscape:connector-curvature="0" />
  </g>
  <g
     inkscape:groupmode="layer"
     id="layer6"
     inkscape:label="Layer 6">
    <path
       sodipodi:type="star"
       style="fill:#ffcc00"
       id="path238"
       sodipodi:sides="5"
       sodipodi:cx="143.89622"
       sodipodi:cy="40.332432"
       sodipodi:r1="21.886784"
       sodipodi:r2="8.210148"
       sodipodi:arg1="0.94021857"
       sodipodi:arg2="1.5685371"
       inkscape:flatsided="false"
       inkscape:rounded="0"
       inkscape:randomized="0"
       d="m 156.80092,58.010102 -12.88615,-9.467543 -12.84324,9.525672 5.02213,-15.18109 -13.02823,-9.271053 15.99,0.08511 4.79135,-15.255498 4.86023,15.233693 15.98945,-0.157363 -12.98621,9.329826 z"
       inkscape:transform-center-x="0.015280012"
       inkscape:transform-center-y="-2.0754643" />
  </g>
  <g
     inkscape:groupmode="layer"
     id="layer7"
     inkscape:label="Layer 7">
    <rect
       style="fill:#ff0000;stroke-width:10.4150753"
       id="rect253"
       width="0.7578125"
       height="66.948662"
       x="177.75391"
       y="74.953682" />
  </g>
  <g
     inkscape:groupmode="layer"
     id="layer9"
     inkscape:label="Layer 9">
    <rect
       style="fill:#ff0000"
       id="rect259"
       width="5.59375"
       height="14.46875"
       x="105.5625"
       y="134.9375" />
  </g>
  <g
     inkscape:groupmode="layer"
     id="layer10"
     inkscape:label="Layer 10">
    <rect
       style="fill:#ff0000"
       id="rect264"
       width="3.09375"
       height="7.375"
       x="183.78125"
       y="96.15625" />
  </g>
  <g
     inkscape:groupmode="layer"
     id="layer11"
     inkscape:label="Layer 11">
    <circle
       style="fill:#ff0000"
       id="path269"
       cx="212.45699"
       cy="98.28727"
       r="5.9824948" />
  </g>
  <g
     inkscape:groupmode="layer"
     id="layer12"
     inkscape:label="Layer 12">
    <rect
       style="fill:#ff0000;stroke-width:1.11148429"
       id="rect272"
       width="11.9036"
       height="3.9361024"
       x="206.51392"
       y="98.148071" />
  </g>
  <g
     inkscape:groupmode="layer"
     id="layer13"
     inkscape:label="Layer 13">
    <rect
       style="fill:#ff0000"
       id="rect71"
       width="7.0710683"
       height="15.578447"
       x="100.01142"
       y="90.80217" />
    <rect
       style="fill:#ff0000"
       id="rect91"
       width="11.53468"
       height="14.009554"
       x="6.1429906"
       y="91.24411" />
    <rect
       style="fill:#ff0000"
       id="rect95"
       width="5.23701"
       height="13.103573"
       x="105.88924"
       y="133.75891" />
  </g>
  <g
     inkscape:groupmode="layer"
     id="layer14"
     inkscape:label="Layer 14">
    <flowRoot
       xml:space="preserve"
       id="flowRoot106"
       style="font-style:normal;font-variant:normal;font-weight:normal;font-stretch:normal;font-size:37.33333206px;line-height:1.25;font-family:'Gotham Narrow';-inkscape-font-specification:'Gotham Narrow';letter-spacing:0px;word-spacing:0px;fill:#000000;fill-opacity:1;stroke:none"><flowRegion
         id="flowRegion108"><rect
           id="rect110"
           width="31.750002"
           height="54.250004"
           x="7.5000005"
           y="196.75" /></flowRegion><flowPara
         id="flowPara112">Maoi</flowPara></flowRoot>    <flowRoot
       xml:space="preserve"
       id="flowRoot114"
       style="fill:#ffff00;fill-opacity:1;stroke:none;font-family:'Gotham Narrow';font-style:normal;font-weight:normal;font-size:26.66666667px;line-height:1.25;letter-spacing:0px;word-spacing:0px;-inkscape-font-specification:'Gotham Narrow';font-stretch:normal;font-variant:normal;"><flowRegion
         id="flowRegion116"
         style="font-size:26.66666667px;fill:#ffff00;"><rect
           id="rect118"
           width="254.45581"
           height="66.904022"
           x="2.5"
           y="189.75"
           style="font-size:26.66666667px;fill:#ffff00;" /></flowRegion><flowPara
         id="flowPara120" /></flowRoot>  </g>
  <g
     inkscape:groupmode="layer"
     id="layer15"
     inkscape:label="Layer 15">
    <rect
       style="fill:#ffcc00;stroke-width:2.22998047"
       id="rect92"
       width="5.7531061"
       height="19.644379"
       x="232.40932"
       y="115.26358" />
  </g>
</svg>
